<?xml version="1.0" encoding="iso-8859-1"?>
<!-- Generator: Adobe Illustrator 19.0.0, SVG Export Plug-In . SVG Version: 6.00 Build 0)  -->
<svg version="1.1" id="Capa_1" xmlns="http://www.w3.org/2000/svg" xmlns:xlink="http://www.w3.org/1999/xlink" x="0px" y="0px"
	 viewBox="0 0 512 512" style="enable-background:new 0 0 512 512;" xml:space="preserve">
<g>
	<g>
		<path d="M503.467,477.867c-4.71,0-8.533,3.823-8.533,8.533v8.533H486.4c-4.71,0-8.533,3.823-8.533,8.533S481.69,512,486.4,512
			h17.067c4.71,0,8.533-3.823,8.533-8.533V486.4C512,481.69,508.177,477.867,503.467,477.867z"/>
	</g>
</g>
<g>
	<g>
		<g>
			<path d="M354.748,494.933h-32.913c-4.71,0-8.533,3.823-8.533,8.533s3.823,8.533,8.533,8.533h32.913
				c4.71,0,8.533-3.823,8.533-8.533S359.458,494.933,354.748,494.933z"/>
			<path d="M437.026,494.933h-32.913c-4.71,0-8.533,3.823-8.533,8.533s3.823,8.533,8.533,8.533h32.913
				c4.719,0,8.533-3.823,8.533-8.533S441.737,494.933,437.026,494.933z"/>
		</g>
	</g>
</g>
<g>
	<g>
		<g>
			<path d="M107.887,494.933H74.974c-4.71,0-8.533,3.823-8.533,8.533S70.263,512,74.974,512h32.913c4.71,0,8.533-3.823,8.533-8.533
				S112.597,494.933,107.887,494.933z"/>
			<path d="M272.452,494.933h-32.913c-4.71,0-8.533,3.823-8.533,8.533s3.823,8.533,8.533,8.533h32.913
				c4.719,0,8.533-3.823,8.533-8.533S277.163,494.933,272.452,494.933z"/>
			<path d="M190.174,494.933h-32.913c-4.71,0-8.533,3.823-8.533,8.533S152.55,512,157.261,512h32.913
				c4.71,0,8.533-3.823,8.533-8.533S194.884,494.933,190.174,494.933z"/>
		</g>
	</g>
</g>
<g>
	<g>
		<path d="M25.6,494.933h-8.533V486.4c0-4.71-3.823-8.533-8.533-8.533S0,481.69,0,486.4v17.067C0,508.177,3.823,512,8.533,512H25.6
			c4.71,0,8.533-3.823,8.533-8.533S30.31,494.933,25.6,494.933z"/>
	</g>
</g>
<g>
	<g>
		<g>
			<path d="M8.533,395.58c-4.71,0-8.533,3.823-8.533,8.533v32.913c0,4.71,3.823,8.533,8.533,8.533s8.533-3.814,8.533-8.533v-32.913
				C17.067,399.403,13.244,395.58,8.533,395.58z"/>
			<path d="M8.533,313.293c-4.71,0-8.533,3.823-8.533,8.533v32.913c0,4.71,3.823,8.533,8.533,8.533s8.533-3.814,8.533-8.533v-32.913
				C17.067,317.116,13.244,313.293,8.533,313.293z"/>
		</g>
	</g>
</g>
<g>
	<g>
		<g>
			<path d="M8.533,231.014c-4.71,0-8.533,3.823-8.533,8.533v32.913c0,4.71,3.823,8.533,8.533,8.533s8.533-3.823,8.533-8.533v-32.913
				C17.067,234.837,13.244,231.014,8.533,231.014z"/>
			<path d="M8.533,66.441C3.823,66.441,0,70.263,0,74.974v32.913c0,4.71,3.823,8.533,8.533,8.533s8.533-3.823,8.533-8.533V74.974
				C17.067,70.263,13.244,66.441,8.533,66.441z"/>
			<path d="M8.533,148.727c-4.71,0-8.533,3.823-8.533,8.533v32.913c0,4.71,3.823,8.533,8.533,8.533s8.533-3.823,8.533-8.533v-32.913
				C17.067,152.55,13.244,148.727,8.533,148.727z"/>
		</g>
	</g>
</g>
<g>
	<g>
		<path d="M25.6,0H8.533C3.823,0,0,3.823,0,8.533V25.6c0,4.71,3.823,8.533,8.533,8.533s8.533-3.823,8.533-8.533v-8.533H25.6
			c4.71,0,8.533-3.823,8.533-8.533S30.31,0,25.6,0z"/>
	</g>
</g>
<g>
	<g>
		<g>
			<path d="M107.887,0H74.974c-4.71,0-8.533,3.823-8.533,8.533s3.823,8.533,8.533,8.533h32.913c4.71,0,8.533-3.823,8.533-8.533
				S112.597,0,107.887,0z"/>
			<path d="M190.174,0h-32.913c-4.71,0-8.533,3.823-8.533,8.533s3.823,8.533,8.533,8.533h32.913c4.71,0,8.533-3.823,8.533-8.533
				S194.884,0,190.174,0z"/>
		</g>
	</g>
</g>
<g>
	<g>
		<g>
			<path d="M272.461,0h-32.913c-4.71,0-8.533,3.823-8.533,8.533s3.823,8.533,8.533,8.533h32.913c4.71,0,8.533-3.823,8.533-8.533
				S277.171,0,272.461,0z"/>
			<path d="M354.748,0h-32.913c-4.71,0-8.533,3.823-8.533,8.533s3.823,8.533,8.533,8.533h32.913c4.71,0,8.533-3.823,8.533-8.533
				S359.458,0,354.748,0z"/>
			<path d="M437.026,0h-32.913c-4.71,0-8.533,3.823-8.533,8.533s3.823,8.533,8.533,8.533h32.913c4.719,0,8.533-3.823,8.533-8.533
				S441.737,0,437.026,0z"/>
		</g>
	</g>
</g>
<g>
	<g>
		<path d="M503.467,0H486.4c-4.71,0-8.533,3.823-8.533,8.533s3.823,8.533,8.533,8.533h8.533V25.6c0,4.71,3.823,8.533,8.533,8.533
			S512,30.31,512,25.6V8.533C512,3.823,508.177,0,503.467,0z"/>
	</g>
</g>
<g>
	<g>
		<g>
			<path d="M503.467,148.727c-4.71,0-8.533,3.823-8.533,8.533v32.913c0,4.71,3.823,8.533,8.533,8.533s8.533-3.823,8.533-8.533
				v-32.913C512,152.55,508.177,148.727,503.467,148.727z"/>
			<path d="M503.467,66.441c-4.71,0-8.533,3.823-8.533,8.533v32.913c0,4.71,3.823,8.533,8.533,8.533s8.533-3.823,8.533-8.533V74.974
				C512,70.263,508.177,66.441,503.467,66.441z"/>
		</g>
	</g>
</g>
<g>
	<g>
		<g>
			<path d="M503.467,395.58c-4.71,0-8.533,3.823-8.533,8.533v32.913c0,4.71,3.823,8.533,8.533,8.533s8.533-3.814,8.533-8.533
				v-32.913C512,399.403,508.177,395.58,503.467,395.58z"/>
			<path d="M503.467,313.293c-4.71,0-8.533,3.823-8.533,8.533v32.913c0,4.71,3.823,8.533,8.533,8.533s8.533-3.814,8.533-8.533
				v-32.913C512,317.116,508.177,313.293,503.467,313.293z"/>
			<path d="M503.467,231.006c-4.71,0-8.533,3.823-8.533,8.533v32.913c0,4.71,3.823,8.533,8.533,8.533s8.533-3.823,8.533-8.533
				v-32.913C512,234.829,508.177,231.006,503.467,231.006z"/>
		</g>
	</g>
</g>
<g>
	<g>
		<path d="M136.533,51.2c-4.71,0-8.533,3.823-8.533,8.533v392.533c0,4.71,3.823,8.533,8.533,8.533s8.533-3.823,8.533-8.533V59.733
			C145.067,55.023,141.244,51.2,136.533,51.2z"/>
	</g>
</g>
<g>
	<g>
		<path d="M256,51.2c-4.71,0-8.533,3.823-8.533,8.533v392.533c0,4.71,3.823,8.533,8.533,8.533s8.533-3.823,8.533-8.533V59.733
			C264.533,55.023,260.71,51.2,256,51.2z"/>
	</g>
</g>
<g>
	<g>
		<path d="M375.467,51.2c-4.71,0-8.533,3.823-8.533,8.533v392.533c0,4.71,3.823,8.533,8.533,8.533s8.533-3.823,8.533-8.533V59.733
			C384,55.023,380.177,51.2,375.467,51.2z"/>
	</g>
</g>
<g>
	<g>
		<path d="M452.267,128H59.733c-4.71,0-8.533,3.823-8.533,8.533s3.823,8.533,8.533,8.533h392.533c4.71,0,8.533-3.823,8.533-8.533
			S456.977,128,452.267,128z"/>
	</g>
</g>
<g>
	<g>
		<path d="M452.267,247.467H59.733c-4.71,0-8.533,3.823-8.533,8.533s3.823,8.533,8.533,8.533h392.533
			c4.71,0,8.533-3.823,8.533-8.533S456.977,247.467,452.267,247.467z"/>
	</g>
</g>
<g>
	<g>
		<path d="M452.267,366.933H59.733c-4.71,0-8.533,3.823-8.533,8.533S55.023,384,59.733,384h392.533c4.71,0,8.533-3.823,8.533-8.533
			S456.977,366.933,452.267,366.933z"/>
	</g>
</g>
<g>
</g>
<g>
</g>
<g>
</g>
<g>
</g>
<g>
</g>
<g>
</g>
<g>
</g>
<g>
</g>
<g>
</g>
<g>
</g>
<g>
</g>
<g>
</g>
<g>
</g>
<g>
</g>
<g>
</g>
</svg>
